<svg width="1073" height="1192" viewBox="0 0 1073 1192" fill="none" xmlns="http://www.w3.org/2000/svg">
<path d="M753.673 331.111C699.367 272.835 621.218 241.049 535.121 241.049C449.025 241.049 372.201 272.835 316.569 331.111C263.587 386.738 234.447 464.88 234.447 549.644C234.447 556.267 234.447 564.213 235.771 570.835C235.771 572.16 235.771 573.484 235.771 574.809C235.771 576.133 235.771 577.458 235.771 578.782C243.719 667.52 284.78 728.444 323.192 781.422C356.306 827.778 384.122 868.836 384.122 917.84C384.122 944.329 403.99 968.169 443.727 984.062C471.543 995.982 507.306 1003.93 536.446 1003.93C565.586 1003.93 601.349 995.982 629.165 984.062C667.577 968.169 688.77 944.329 688.77 917.84C688.77 867.511 716.586 827.778 749.7 781.422C790.761 721.822 837.12 655.6 837.12 550.969C835.796 464.88 806.656 388.062 753.673 331.111ZM519.227 590.702C511.279 588.053 503.332 581.431 498.034 574.809C496.709 573.484 496.709 572.16 495.385 570.835C492.736 566.862 491.411 561.564 490.086 556.267C488.762 548.32 488.762 540.373 491.411 533.751C492.735 532.427 492.736 531.102 492.736 528.453C499.358 515.209 511.279 504.613 527.174 501.964C528.499 501.964 531.148 501.964 532.472 501.964H533.797C533.797 501.964 533.797 501.964 535.121 501.964C557.639 501.964 577.507 517.858 581.481 540.373C582.805 549.644 581.481 558.916 577.507 568.187C576.183 569.511 576.183 570.836 576.183 572.16C569.56 584.08 557.639 592.027 544.393 594.676H543.069C540.42 594.676 539.095 594.676 536.446 594.676C529.823 593.351 524.525 593.351 519.227 590.702ZM590.753 598.649C605.323 614.542 619.893 633.084 634.463 652.951C675.524 712.551 691.419 754.933 691.419 769.502C678.174 764.204 642.411 736.391 601.349 676.791C586.779 656.924 574.858 635.733 565.586 617.191C574.858 613.218 584.13 606.596 590.753 598.649ZM581.481 487.395C573.534 480.773 562.937 476.8 552.341 474.151C558.963 454.284 566.911 431.769 577.507 409.253C607.972 343.031 638.437 308.595 650.358 301.973C653.007 316.542 645.06 361.573 614.595 426.471C603.998 448.987 592.077 470.178 581.481 487.395ZM337.762 350.978C388.095 298 455.648 270.187 535.121 270.187C566.911 270.187 597.376 274.16 625.191 283.431C618.569 288.729 611.946 296.675 603.998 305.947C585.455 328.462 566.911 361.573 549.691 397.333C537.77 423.822 527.174 450.311 520.551 474.151C500.683 478.124 483.464 488.72 472.867 504.613C471.543 505.938 470.218 508.587 468.893 509.911C445.051 508.587 417.236 508.587 388.095 511.235C348.359 515.209 311.271 521.831 283.455 531.102C275.508 533.751 267.561 536.4 262.262 540.373C266.236 466.204 291.403 399.982 337.762 350.978ZM460.946 560.24C460.946 564.213 462.271 566.862 463.595 570.835C443.727 574.809 419.885 578.782 396.043 581.431C323.192 588.053 278.157 578.782 266.236 572.16C276.833 562.889 319.218 546.995 392.069 540.373C415.911 537.724 439.753 537.724 460.946 539.049C459.622 545.671 459.622 553.618 460.946 560.24ZM411.937 917.84C411.937 858.24 380.148 813.209 345.71 764.204C313.92 717.849 279.482 670.169 267.561 603.947C274.184 606.595 282.131 607.92 291.403 609.244C307.297 611.893 327.166 613.218 347.034 613.218C362.929 613.218 380.148 611.893 397.367 610.569C426.508 607.92 454.323 603.947 478.165 597.324C484.788 603.947 491.411 610.569 500.683 614.542V969.493C484.788 966.844 467.569 961.547 454.323 956.249C441.078 952.275 411.937 937.707 411.937 917.84ZM529.823 974.791V623.813C531.148 623.813 533.797 623.813 535.121 623.813H536.446C537.77 626.462 539.095 630.435 541.744 633.084V973.467C539.095 973.467 537.77 973.467 536.446 973.467C535.121 973.467 531.148 974.791 529.823 974.791ZM658.305 917.84C658.305 937.707 629.165 952.276 617.244 957.573C602.674 964.196 586.779 968.169 570.884 970.818V682.089C573.534 686.062 576.183 690.036 578.832 694.009C601.349 727.12 626.516 754.933 647.709 774.8C667.577 792.018 683.472 801.289 695.393 801.289C696.717 801.289 698.042 801.289 699.367 801.289C676.849 835.724 658.305 872.809 658.305 917.84ZM724.533 764.204C723.209 765.529 721.884 768.178 720.559 769.502C720.559 758.907 716.586 745.662 711.288 729.769C700.691 701.955 682.147 670.169 659.63 637.058C642.411 613.218 625.191 590.702 607.972 573.484C611.946 561.564 613.27 549.644 610.621 536.4C609.297 527.129 606.647 519.182 601.349 512.56C614.595 492.693 629.165 467.529 641.086 441.04C658.305 405.28 670.226 369.52 675.524 340.382C678.174 328.462 679.498 317.867 679.498 309.92C699.367 321.84 716.586 336.409 732.48 353.627C780.165 403.955 806.656 475.475 806.656 552.293C806.656 645.004 764.27 705.929 724.533 764.204Z" fill="#0000FF"/>
<path d="M654.331 988.036C621.217 1011.88 580.156 1025.12 535.121 1025.12C490.086 1025.12 449.025 1011.88 414.586 988.036C407.964 982.738 398.692 985.387 394.718 990.685C389.42 997.307 392.069 1006.58 397.367 1010.55C435.779 1038.36 483.463 1054.26 533.797 1054.26C584.13 1054.26 631.814 1039.69 670.226 1011.88C676.849 1006.58 678.173 998.631 672.875 992.009C670.226 985.387 660.954 984.062 654.331 988.036Z" fill="#0000FF"/>
<path d="M654.331 1039.69C623.867 1062.2 584.13 1072.8 535.121 1072.8C486.113 1072.8 446.376 1062.2 414.586 1039.69C407.964 1034.39 398.692 1037.04 394.718 1042.34C389.42 1048.96 392.069 1058.23 397.367 1062.2C433.13 1088.69 478.165 1101.94 533.797 1101.94C589.428 1101.94 633.138 1088.69 670.226 1063.53C676.849 1058.23 678.173 1050.28 672.875 1043.66C670.226 1035.72 660.954 1034.39 654.331 1039.69Z" fill="#0000FF"/>
<path d="M654.331 1091.34C618.568 1116.51 573.533 1120.48 535.121 1120.48C496.709 1120.48 451.674 1116.51 414.586 1090.02C407.964 1084.72 398.692 1087.37 394.718 1092.67C389.42 1099.29 392.069 1108.56 397.367 1112.53C422.534 1131.08 451.674 1140.35 479.49 1144.32C483.463 1170.81 505.981 1192 533.797 1192C561.612 1192 584.13 1170.81 588.104 1144.32C615.919 1140.35 643.735 1131.08 668.902 1112.53C675.524 1107.24 676.849 1099.29 671.551 1092.67C670.226 1087.37 660.954 1086.04 654.331 1091.34ZM535.121 1164.19C524.525 1164.19 515.253 1157.56 511.279 1148.29C519.226 1148.29 527.174 1148.29 535.121 1148.29C543.069 1148.29 551.016 1148.29 558.963 1148.29C556.314 1157.56 547.042 1164.19 535.121 1164.19Z" fill="#0000FF"/>
<path d="M344.385 410.578C347.034 413.227 349.683 413.227 353.657 413.227C357.63 413.227 361.604 411.902 365.578 407.929C401.341 362.898 441.078 337.734 491.411 329.787C499.358 328.462 504.656 320.516 503.332 312.569C502.007 304.622 494.06 299.325 486.113 300.649C427.832 311.245 382.797 339.058 341.736 389.387C337.762 396.009 339.087 405.28 344.385 410.578Z" fill="#0000FF"/>
<path d="M515.253 165.556C515.253 170.853 517.902 176.151 520.551 178.8C524.525 182.773 528.498 184.098 533.797 184.098C539.095 184.098 544.393 181.449 547.042 178.8C551.016 174.827 552.341 170.853 552.341 165.556C552.341 160.258 549.691 154.96 547.042 152.311C544.393 149.662 541.744 148.338 539.095 147.013C547.042 144.364 552.341 137.742 552.341 128.471C552.341 120.524 547.042 112.578 539.095 109.929C547.042 107.28 552.341 100.658 552.341 91.3867C552.341 83.44 547.042 75.4933 539.095 72.8445C547.042 70.1956 552.341 63.5733 552.341 54.3022C552.341 46.3556 547.042 38.4089 539.095 35.76C541.744 34.4356 544.393 33.1111 547.042 30.4622C551.016 26.4889 552.341 22.5156 552.341 17.2178C552.341 11.92 549.691 6.62223 547.042 3.97334C544.393 2.64889 539.095 0 535.121 0C529.823 0 524.525 2.64889 521.876 5.29778C517.902 9.27111 516.577 13.2444 516.577 18.5422C516.577 23.84 519.227 29.1378 521.876 31.7867C524.525 34.4356 527.174 35.76 529.823 37.0845C521.876 39.7333 516.577 46.3556 516.577 55.6267C516.577 63.5733 521.876 71.52 529.823 74.1689C521.876 76.8178 516.577 83.44 516.577 92.7111C516.577 100.658 521.876 108.604 529.823 111.253C521.876 113.902 516.577 120.524 516.577 129.796C516.577 137.742 521.876 145.689 529.823 148.338C527.174 149.662 524.525 150.987 521.876 153.636C517.902 154.96 515.253 160.258 515.253 165.556Z" fill="#0000FF"/>
<path d="M241.069 127.147C242.394 127.147 245.043 127.147 246.368 125.822C241.069 132.444 241.069 141.716 245.043 148.338C250.341 154.96 258.289 158.933 266.236 156.284C260.938 162.907 260.938 172.178 264.911 178.8C270.21 185.422 278.157 189.396 286.104 186.747C280.806 193.369 280.806 202.64 284.78 209.262C288.754 214.56 294.052 217.209 300.675 217.209C301.999 217.209 304.648 217.209 305.973 215.884C303.324 219.858 301.999 223.831 301.999 227.804C301.999 233.102 304.648 238.4 307.297 241.049C311.271 245.022 315.245 246.347 320.543 246.347C325.841 246.347 331.139 243.698 333.789 241.049C337.762 237.076 339.087 233.102 339.087 227.804C339.087 222.507 336.438 217.209 333.789 214.56C329.815 210.587 325.841 209.262 320.543 209.262C319.218 209.262 316.569 209.262 315.245 210.587C320.543 203.964 320.543 194.693 316.569 188.071C311.271 181.449 303.324 177.476 295.376 180.124C300.675 173.502 300.675 164.231 296.701 157.609C291.403 150.987 283.455 147.013 275.508 149.662C280.806 143.04 280.806 133.769 276.833 127.147C271.534 120.524 263.587 116.551 255.64 119.2C258.289 115.227 259.613 111.253 259.613 107.28C259.613 101.982 256.964 96.6845 254.315 94.0356C250.341 90.0622 246.368 88.7378 241.069 88.7378C235.771 88.7378 230.473 91.3867 227.824 94.0356C223.85 98.0089 222.526 101.982 222.526 107.28C222.526 112.578 225.175 117.876 227.824 120.524C231.798 125.822 235.771 127.147 241.069 127.147Z" fill="#0000FF"/>
<path d="M47.684 365.547C52.9822 365.547 58.2804 362.898 60.9295 360.249C60.9295 360.249 60.9295 358.925 62.2541 358.925C62.2541 366.871 66.2278 374.818 74.1751 378.791C82.1225 381.44 91.3943 380.116 96.6926 373.494C96.6926 381.44 100.666 389.387 108.614 392.036C116.561 394.685 125.833 393.36 131.131 386.738C131.131 394.685 135.105 402.631 143.052 405.28C145.701 406.605 148.35 406.605 150.999 406.605C156.298 406.605 161.596 403.956 165.57 399.982V401.307C165.57 406.605 168.219 411.902 170.868 414.551C174.841 418.525 178.815 419.849 184.113 419.849C189.412 419.849 194.71 417.2 197.359 414.551C201.333 410.578 202.657 406.605 202.657 401.307C202.657 396.009 200.008 390.711 197.359 388.062C193.385 384.089 189.412 382.765 184.113 382.765C178.815 382.765 173.517 385.414 170.868 388.062C170.868 388.062 170.868 389.387 169.543 389.387C169.543 381.44 165.57 373.494 157.622 369.52C149.675 366.871 140.403 368.196 135.105 374.818C135.105 366.871 131.131 358.925 123.184 356.276C115.236 353.627 105.964 354.951 100.666 361.574C100.666 353.627 96.6926 345.68 88.7452 343.031C80.7979 340.382 71.526 341.707 66.2278 348.329V347.005C66.2278 341.707 63.5786 336.409 60.9295 333.76C56.9559 329.787 52.9822 328.462 47.684 328.462C42.3857 328.462 37.0875 331.111 34.4384 333.76C30.4647 337.734 29.1401 341.707 29.1401 347.005C29.1401 352.302 31.7893 357.6 34.4384 360.249C37.0875 362.898 42.3857 365.547 47.684 365.547Z" fill="#0000FF"/>
<path d="M147.026 637.058C151 641.031 154.973 642.355 160.272 642.355C165.57 642.355 170.868 639.707 173.517 637.058C177.491 633.084 178.815 629.111 178.815 623.813C178.815 618.515 176.166 613.218 173.517 610.569C169.543 606.595 165.57 605.271 160.272 605.271C154.973 605.271 149.675 607.92 147.026 610.569C144.377 613.218 141.728 617.191 141.728 622.489C137.754 615.867 129.807 611.893 121.859 613.218C113.912 614.542 107.289 621.164 105.965 629.111C101.991 622.489 94.0436 618.515 86.0963 619.84C78.1489 621.164 71.5261 627.787 70.2016 635.733C66.2279 629.111 58.2805 625.138 50.3332 626.462C42.3859 627.787 35.7631 634.409 34.4385 642.355C33.114 641.031 33.1139 639.707 31.7894 638.382C27.8157 634.409 23.842 633.084 18.5438 633.084C13.2456 633.084 7.94734 635.733 5.29823 638.382C1.32455 642.355 0 646.329 0 651.627C0 656.924 2.64911 662.222 5.29823 664.871C9.2719 668.844 13.2456 670.169 18.5438 670.169C23.842 670.169 29.1403 667.52 31.7894 664.871C34.4385 662.222 37.0876 658.249 37.0876 652.951C41.0613 659.573 46.3595 662.222 54.3069 662.222C55.6314 662.222 56.956 662.222 58.2805 662.222C66.2279 660.898 72.8507 654.275 74.1752 646.329C78.1489 652.951 86.0963 656.924 94.0436 655.6C101.991 654.275 108.614 647.653 109.938 639.707C113.912 646.329 121.859 650.302 129.807 648.978C137.754 647.653 144.377 641.031 145.701 631.76C144.377 634.409 145.701 635.733 147.026 637.058Z" fill="#0000FF"/>
<path d="M264.911 799.964C259.613 799.964 254.315 802.613 251.666 805.262C247.692 809.235 246.368 813.209 246.368 818.507C246.368 821.155 247.692 825.129 249.017 827.778C242.394 823.804 233.122 825.129 226.499 831.751C219.876 838.373 219.876 846.32 222.526 854.267C215.903 850.293 206.631 851.618 200.008 858.24C193.385 864.862 193.385 872.809 196.034 880.755C189.412 876.782 180.14 878.107 173.517 884.729C166.894 891.351 166.894 899.298 169.543 907.244C166.894 905.92 164.245 904.595 160.271 904.595C154.973 904.595 149.675 907.244 147.026 909.893C144.377 912.542 141.728 917.84 141.728 923.138C141.728 928.435 144.377 933.733 147.026 936.382C150.999 940.355 154.973 941.68 160.271 941.68C165.57 941.68 170.868 939.031 173.517 936.382C177.491 932.409 178.815 928.435 178.815 923.138C178.815 920.489 177.491 916.515 176.166 913.867C178.815 915.191 181.464 916.515 185.438 916.515C190.736 916.515 194.71 915.191 198.684 911.218C205.306 904.595 205.306 896.649 202.657 888.702C209.28 892.675 218.552 891.351 225.175 884.729C231.797 878.107 231.797 870.16 229.148 862.213C235.771 866.187 245.043 864.862 251.666 858.24C258.289 851.618 258.289 843.671 255.639 835.724C258.289 837.049 260.938 838.373 264.911 838.373C270.21 838.373 275.508 835.724 278.157 833.075C282.131 829.102 283.455 825.129 283.455 819.831C283.455 814.533 280.806 809.235 278.157 806.587C275.508 801.289 270.21 799.964 264.911 799.964Z" fill="#0000FF"/>
<path d="M748.375 248.995C753.673 248.995 758.971 246.346 761.62 243.698C765.594 239.724 766.919 235.751 766.919 230.453C766.919 226.48 765.594 222.506 762.945 218.533C764.27 218.533 766.919 219.858 768.243 219.858C774.866 219.858 780.164 217.209 784.138 211.911C789.436 205.289 788.112 196.018 782.813 189.395C790.761 192.044 798.708 188.071 804.006 181.449C809.305 174.826 807.98 165.555 802.682 158.933C810.629 161.582 818.576 157.609 823.875 150.986C829.173 144.364 827.848 135.093 822.55 128.471C823.875 128.471 826.524 129.795 827.848 129.795C833.147 129.795 838.445 127.146 841.094 124.498C845.068 120.524 846.392 116.551 846.392 111.253C846.392 105.955 843.743 100.658 841.094 98.0087C837.12 94.0354 833.147 92.7109 827.848 92.7109C822.55 92.7109 817.252 95.3598 814.603 98.0087C810.629 101.982 809.305 105.955 809.305 111.253C809.305 115.226 810.629 119.2 813.278 123.173C805.331 120.524 797.384 124.498 792.085 131.12C786.787 137.742 788.112 147.013 793.41 153.635C785.463 150.986 777.515 154.96 772.217 161.582C766.919 168.204 768.243 177.475 773.542 184.098C765.594 181.449 757.647 185.422 752.349 192.044C747.05 198.666 748.375 207.938 753.673 214.56C752.349 214.56 749.699 213.235 748.375 213.235C743.077 213.235 737.778 215.884 735.129 218.533C731.156 222.506 729.831 226.48 729.831 231.778C729.831 237.075 732.48 242.373 735.129 245.022C737.778 247.671 743.077 248.995 748.375 248.995Z" fill="#0000FF"/>
<path d="M888.778 421.173C894.076 421.173 899.375 418.524 902.024 415.876C905.997 411.902 907.322 407.929 907.322 402.631V401.307C911.296 405.28 916.594 407.929 921.892 407.929C924.541 407.929 927.19 407.929 929.839 406.604C937.787 403.956 941.761 396.009 941.761 388.062C947.059 394.684 956.331 396.009 964.278 393.36C972.225 390.711 976.199 382.764 976.199 374.818C981.497 381.44 990.769 382.764 998.717 380.116C1006.66 377.467 1010.64 369.52 1010.64 360.249C1010.64 360.249 1010.64 361.573 1011.96 361.573C1015.94 365.547 1019.91 366.871 1025.21 366.871C1030.51 366.871 1035.8 364.222 1038.45 361.573C1042.43 357.6 1043.75 353.627 1043.75 348.329C1043.75 343.031 1041.1 337.733 1038.45 335.084C1034.48 331.111 1030.51 329.787 1025.21 329.787C1019.91 329.787 1014.61 332.436 1011.96 335.084C1007.99 339.058 1006.66 343.031 1006.66 348.329V349.653C1001.37 343.031 992.094 341.707 984.146 344.356C976.199 347.004 972.225 354.951 972.225 362.898C966.927 356.276 957.655 354.951 949.708 357.6C941.76 360.249 937.787 368.196 937.787 376.142C932.489 369.52 923.217 368.196 915.269 370.844C907.322 373.493 903.348 381.44 903.348 390.711C903.348 390.711 903.348 389.387 902.024 389.387C898.05 385.413 894.076 384.089 888.778 384.089C883.48 384.089 878.182 386.738 875.533 389.387C871.559 393.36 870.234 397.333 870.234 402.631C870.234 407.929 872.884 413.227 875.533 415.876C878.182 418.524 883.48 421.173 888.778 421.173Z" fill="#0000FF"/>
<path d="M1066.27 638.382C1062.3 634.409 1058.32 633.085 1053.02 633.085C1047.73 633.085 1042.43 635.733 1039.78 638.382C1038.45 639.707 1037.13 641.031 1037.13 642.356C1035.8 634.409 1030.51 627.787 1021.23 625.138C1013.29 623.813 1005.34 627.787 1001.37 634.409C1000.04 626.462 994.743 619.84 985.471 618.516C977.524 617.191 969.576 621.165 965.603 627.787C964.278 619.84 958.98 613.218 949.708 611.893C941.761 610.569 933.813 614.542 929.84 621.165C929.84 617.191 927.19 613.218 924.541 609.245C920.568 605.271 916.594 603.947 911.296 603.947C905.998 603.947 900.699 606.596 898.05 609.245C894.077 613.218 892.752 617.191 892.752 622.489C892.752 627.787 895.401 633.085 898.05 635.733C902.024 639.707 905.998 641.031 911.296 641.031C916.594 641.031 921.892 638.382 924.541 635.733C925.866 634.409 927.19 633.085 927.19 631.76C928.515 639.707 933.813 646.329 943.085 648.978C951.032 650.302 958.98 646.329 962.953 639.707C964.278 647.653 969.576 654.276 978.848 655.6C986.796 656.925 994.743 652.951 998.717 646.329C1000.04 654.276 1005.34 660.898 1014.61 662.222C1015.94 662.222 1017.26 662.222 1018.58 662.222C1025.21 662.222 1031.83 658.249 1035.8 652.951C1035.8 656.925 1038.45 660.898 1041.1 664.871C1045.08 668.845 1049.05 670.169 1054.35 670.169C1059.65 670.169 1064.94 667.52 1067.59 664.871C1071.57 660.898 1072.89 656.925 1072.89 651.627C1071.57 647.653 1070.24 642.356 1066.27 638.382Z" fill="#0000FF"/>
<path d="M908.647 903.271C905.998 903.271 902.024 904.596 899.375 905.92C903.349 899.298 902.024 890.027 895.401 883.405C888.778 876.782 880.831 876.782 872.884 879.431C876.857 872.809 875.533 863.538 868.91 856.916C862.287 850.293 854.34 850.293 846.393 852.942C850.366 846.32 849.042 837.049 842.419 830.427C835.796 823.805 827.849 823.805 819.901 826.453C821.226 823.805 822.55 821.156 822.55 817.182C822.55 811.885 819.901 806.587 817.252 803.938C813.279 799.965 809.305 798.64 804.007 798.64C798.708 798.64 793.41 801.289 790.761 803.938C786.787 807.911 785.463 811.885 785.463 817.182C785.463 822.48 788.112 827.778 790.761 830.427C794.735 834.4 798.708 835.725 804.007 835.725C806.656 835.725 810.629 834.4 813.279 833.076C809.305 839.698 810.629 848.969 817.252 855.591C823.875 862.213 831.822 862.213 839.77 859.565C835.796 866.187 837.121 875.458 843.743 882.08C850.366 888.702 858.314 888.702 866.261 886.053C862.287 892.676 863.612 901.947 870.235 908.569C874.208 912.542 879.506 913.867 883.48 913.867C886.129 913.867 890.103 912.542 892.752 911.218C891.427 913.867 890.103 916.516 890.103 920.489C890.103 925.787 892.752 931.085 895.401 933.733C899.375 937.707 903.348 939.031 908.647 939.031C913.945 939.031 919.243 936.382 921.892 933.733C925.866 929.76 927.191 925.787 927.191 920.489C927.191 915.191 924.541 909.893 921.892 907.245C917.919 904.596 912.62 903.271 908.647 903.271Z" fill="#0000FF"/>
</svg>
